# File created by Blade
# Date/Time:  Fri Jan 16 17:45:47 2015
#---------------------------------------------------------
:version 1.10
:name HOM
:units
  mass 1.0
  length 1.000000
  angle deg
:documentation
     Acclaim Skeleton File
:root
   axis xyz
   order TX TY TZ RX RY RZ
   position 0.000000 0.000000 0.000000
   orientation 0 0 0
:bonedata
   begin
      id 1
      name Spine_dum
      direction 0.000000 1.000000 0.000000
      length 7.170412
      axis 0.0 0.0 0.0 xyz
   end
   begin
      id 2
      name LeftUpLeg_dum
      direction 1.000000 0.000000 0.000000
      length 4.318350
      axis 0.0 0.0 0.0 xyz
   end
   begin
      id 3
      name RightUpLeg_dum
      direction -1.000000 0.000000 0.000000
      length 4.318350
      axis 0.0 0.0 0.0 xyz
   end
   begin
      id 4
      name Spine
      direction 0.000000 1.000000 0.000000
      length 0.000000
      axis 0.0 0.0 0.0 xyz
      dof rx ry rz
   end
   begin
      id 5
      name Spine_dum1
      direction 0.000000 1.000000 0.000000
      length 14.276153
      axis 0.0 0.0 0.0 xyz
   end
   begin
      id 6
      name Spine_dum2
      direction 0.000000 1.000000 0.000000
      length 10.718243
      axis 0.0 0.0 0.0 xyz
   end
   begin
      id 7
      name Spine_dum3
      direction 0.000000 1.000000 0.000000
      length 10.718243
      axis 0.0 0.0 0.0 xyz
   end
   begin
      id 8
      name Head
      direction 0.000000 1.000000 0.000000
      length 4.527550
      axis 0.0 0.0 0.0 xyz
      dof rx ry rz
   end
   begin
      id 9
      name LeftShoulder
      direction 1.000000 0.000000 0.000000
      length 7.058872
      axis 0.0 0.0 -90.0 xyz
      dof rx ry rz
   end
   begin
      id 10
      name LeftArm
      direction 1.000000 0.000000 0.000000
      length 10.955525
      axis 0.0 0.0 -90.0 xyz
      dof rx ry rz
   end
   begin
      id 11
      name LeftForeArm
      direction 1.000000 0.000000 0.000000
      length 8.193716
      axis 0.0 0.0 -90.0 xyz
      dof ry rz rx
   end
   begin
      id 12
      name LeftHand
      direction 0.000000 0.000000 0.000000
      length 0.000000
      axis 0.0 0.0 -90.0 xyz
      dof rx ry rz
   end
   begin
      id 13
      name LeftHand_dum1
      direction 0.000000 0.000000 0.000000
      length 0.000000
      axis 0.0 0.0 -90.0 xyz
   end
   begin
      id 14
      name LeftHand_dum2
      direction 1.000000 0.000000 0.000000
      length 3.937000
      axis 0.0 0.0 -90.0 xyz
   end
   begin
      id 15
      name LeftHandThumb1
      direction 0.000000 0.000000 1.000000
      length 3.937000
      axis 0.0 0.0 -90.0 xyz
      dof rx rz ry
   end
   begin
      id 16
      name RightShoulder
      direction -1.000000 0.000000 0.000000
      length 7.058872
      axis 0.0 0.0 90.0 xyz
      dof rx ry rz
   end
   begin
      id 17
      name RightArm
      direction -1.000000 0.000000 0.000000
      length 10.955525
      axis 0.0 0.0 90.0 xyz
      dof rx ry rz
   end
   begin
      id 18
      name RightForeArm
      direction -1.000000 0.000000 0.000000
      length 8.193716
      axis 0.0 0.0 90.0 xyz
      dof ry rz rx
   end
   begin
      id 19
      name RightHand
      direction 0.000000 0.000000 0.000000
      length 0.000000
      axis 0.0 0.0 90.0 xyz
      dof rx ry rz
   end
   begin
      id 20
      name RightHand_dum1
      direction 0.000000 0.000000 0.000000
      length 0.000000
      axis 0.0 0.0 90.0 xyz
   end
   begin
      id 21
      name RightHand_dum2
      direction -1.000000 0.000000 0.000000
      length 3.937000
      axis 0.0 0.0 90.0 xyz
   end
   begin
      id 22
      name RightHandThumb1
      direction 0.000000 0.000000 1.000000
      length 3.937000
      axis 0.0 0.0 90.0 xyz
      dof rx rz ry
   end
   begin
      id 23
      name LeftUpLeg
      direction 0.000000 -1.000000 0.000000
      length 17.323638
      axis 0.0 0.0 0.0 xyz
      dof rx ry rz
   end
   begin
      id 24
      name LeftLeg
      direction 0.000000 -1.000000 0.000000
      length 16.270368
      axis 0.0 0.0 0.0 xyz
      dof rx ry rz
   end
   begin
      id 25
      name LeftFoot
      direction 0.000000 -0.258819 0.965926
      length 4.922846
      axis 15.0 0.0 0.0 xyz
      dof rx ry rz
   end
   begin
      id 26
      name LeftToeBase
      direction 0.000000 0.000000 1.000000
      length 2.952750
      axis 0.0 0.0 0.0 xyz
      dof rx ry rz
   end
   begin
      id 27
      name RightUpLeg
      direction 0.000000 -1.000000 0.000000
      length 17.323638
      axis 0.0 0.0 0.0 xyz
      dof rx ry rz
   end
   begin
      id 28
      name RightLeg
      direction 0.000000 -1.000000 0.000000
      length 16.270368
      axis 0.0 0.0 0.0 xyz
      dof rx ry rz
   end
   begin
      id 29
      name RightFoot
      direction 0.000000 -0.258819 0.965926
      length 4.922846
      axis 15.0 0.0 0.0 xyz
      dof rx ry rz
   end
   begin
      id 30
      name RightToeBase
      direction 0.000000 0.000000 1.000000
      length 2.952750
      axis 0.0 0.0 0.0 xyz
      dof rx ry rz
   end
:hierarchy
   begin
      root Spine_dum LeftUpLeg_dum RightUpLeg_dum
      Spine_dum Spine
      LeftUpLeg_dum LeftUpLeg
      RightUpLeg_dum RightUpLeg
      Spine Spine_dum1 Spine_dum2 Spine_dum3
      Spine_dum1 Head
      Spine_dum2 LeftShoulder
      Spine_dum3 RightShoulder
      LeftShoulder LeftArm
      LeftArm LeftForeArm
      LeftForeArm LeftHand
      LeftHand LeftHand_dum1 LeftHand_dum2
      LeftHand_dum1 LeftHandThumb1
      RightShoulder RightArm
      RightArm RightForeArm
      RightForeArm RightHand
      RightHand RightHand_dum1 RightHand_dum2
      RightHand_dum1 RightHandThumb1
      LeftUpLeg LeftLeg
      LeftLeg LeftFoot
      LeftFoot LeftToeBase
      RightUpLeg RightLeg
      RightLeg RightFoot
      RightFoot RightToeBase
   end

# File created by Blade
# Date/Time:  Fri Jan 16 17:45:28 2015
# Frame Rate: 120.000 fps
#------------------------------------------------------
:FULLY-SPECIFIED
:DEGREES
695
root -5.391290 35.267939 -10.317833 -3.049277 -5.320773 -5.451260
Spine 0.982584 2.593663 10.385216
Head 1.805538 0.936512 -8.033140
LeftShoulder -20.067612 14.593228 -17.955709
LeftArm 20.132786 0.228870 -74.953235
LeftForeArm 4.956665 -0.000000 12.215500
LeftHand 2.027572 -0.000000 -5.616215
LeftHandThumb1 -26.253704 0.000000 33.147579
RightShoulder 1.370804 -1.143650 2.951454
RightArm 17.525107 -34.559745 62.542047
RightForeArm 1.175440 -0.000000 35.743984
RightHand 3.756997 -0.000000 -0.270873
RightHandThumb1 -24.326973 -0.000000 -32.862282
LeftUpLeg 12.232276 15.064532 7.086404
LeftLeg -8.693157 -0.000000 0.000000
LeftFoot -14.996473 26.642412 -8.522455
LeftToeBase 22.736243 -0.000000 -0.000000
RightUpLeg 8.942687 -4.424772 3.649744
RightLeg -4.481371 -0.000000 0.000000
RightFoot -3.863255 -27.633711 3.029140
RightToeBase 13.931730 -0.000000 -0.000000
696
root -5.391702 35.266879 -10.315847 -3.067000 -5.285180 -5.481576
Spine 0.933048 2.626570 10.393371
Head 1.954909 0.681406 -7.897768
LeftShoulder -20.029477 14.635200 -17.933363
LeftArm 20.132811 0.193806 -74.965526
LeftForeArm 4.892363 -0.000000 12.209144
LeftHand 1.965619 -0.000000 -5.674995
LeftHandThumb1 -26.253704 0.000000 33.147579
RightShoulder 1.425567 -1.052143 3.055913
RightArm 17.302231 -33.777184 62.828786
RightForeArm 2.313074 -0.000000 33.052424
RightHand 3.139577 -0.000000 -1.368235
RightHandThumb1 -24.326973 -0.000000 -32.862282
LeftUpLeg 12.256075 15.068700 7.125873
LeftLeg -8.710728 -0.000000 0.000000
LeftFoot -14.979439 26.605617 -8.455741
LeftToeBase 22.750053 -0.000000 -0.000000
RightUpLeg 8.974510 -4.436443 3.679051
RightLeg -4.490484 -0.000000 0.000000
RightFoot -3.846856 -27.653978 3.025454
RightToeBase 13.945903 -0.000000 -0.000000
697
root -5.388270 35.267496 -10.310749 -3.106031 -5.259865 -5.476698
Spine 0.909129 2.685706 10.368736
Head 2.085571 0.406226 -7.771402
LeftShoulder -19.990983 14.637107 -17.917537
LeftArm 20.109126 0.110460 -74.984921
LeftForeArm 4.951743 -0.000000 12.186516
LeftHand 1.977090 -0.000000 -5.688056
LeftHandThumb1 -26.253704 0.000000 33.147579
RightShoulder 1.481102 -0.904624 3.148893
RightArm 17.023929 -33.155574 63.063872
RightForeArm 3.763206 -0.000000 30.411693
RightHand 2.774147 0.000000 -1.846786
RightHandThumb1 -24.326973 -0.000000 -32.862282
LeftUpLeg 12.296474 15.024954 7.120883
LeftLeg -8.711803 -0.000000 0.000000
LeftFoot -14.970394 26.600526 -8.544568
LeftToeBase 22.580665 -0.000000 -0.000000
RightUpLeg 9.025285 -4.479330 3.664076
RightLeg -4.498499 -0.000000 0.000000
RightFoot -3.862168 -27.646047 3.062398
RightToeBase 13.958731 -0.000000 -0.000000
698
root -5.387437 35.267332 -10.304237 -3.151352 -5.230647 -5.488057
Spine 0.883651 2.736942 10.375251
Head 2.243294 0.124573 -7.688650
LeftShoulder -19.955170 14.660871 -17.906922
LeftArm 20.108460 0.074307 -74.987496
LeftForeArm 4.982850 -0.000000 12.148930
LeftHand 1.980577 -0.000000 -5.668271
LeftHandThumb1 -26.253704 0.000000 33.147579
RightShoulder 1.540939 -0.959217 3.188725
RightArm 16.960228 -32.544739 63.202695
RightForeArm 5.090489 -0.000000 27.854461
RightHand 2.302891 -0.000000 -2.301371
RightHandThumb1 -24.326973 -0.000000 -32.862282
LeftUpLeg 12.345880 14.981478 7.142519
LeftLeg -8.704275 -0.000000 0.000000
LeftFoot -15.017546 26.616486 -8.479442
LeftToeBase 22.780341 -0.000000 -0.000000
RightUpLeg 9.091776 -4.516306 3.665305
RightLeg -4.511898 -0.000000 0.000000
RightFoot -3.874703 -27.638936 3.097070
RightToeBase 13.959199 -0.000000 -0.000000
699
root -5.386927 35.266885 -10.296471 -3.193835 -5.212842 -5.509271
Spine 0.863605 2.794763 10.384657
Head 2.368126 -0.176372 -7.577172
LeftShoulder -19.960962 14.658720 -17.894030
LeftArm 20.104462 0.052242 -74.992626
LeftForeArm 5.047013 -0.000000 12.117743
LeftHand 1.964213 -0.000000 -5.672329
LeftHandThumb1 -26.253704 0.000000 33.147579
RightShoulder 1.624767 -0.894241 3.194408
RightArm 16.720649 -32.048347 63.474352
RightForeArm 6.185634 -0.000000 25.441116
RightHand 1.702818 -0.000000 -2.842525
RightHandThumb1 -24.326973 -0.000000 -32.862282
LeftUpLeg 12.417782 14.990674 7.179474
LeftLeg -8.739963 -0.000000 0.000000
LeftFoot -14.994549 26.599404 -8.438563
LeftToeBase 22.771202 -0.000000 -0.000000
RightUpLeg 9.159536 -4.561664 3.679328
RightLeg -4.535622 -0.000000 0.000000
RightFoot -3.863400 -27.634175 3.119106
RightToeBase 13.926084 -0.000000 -0.000000
700
root -5.382932 35.266374 -10.284442 -3.275823 -5.211947 -5.505653
Spine 0.893717 2.884481 10.384224
Head 2.468240 -0.488014 -7.483832
LeftShoulder -19.948066 14.660548 -17.880425
LeftArm 20.103230 0.050820 -74.992440
LeftForeArm 5.037286 0.000000 12.087337
LeftHand 1.978173 0.000000 -5.708334
LeftHandThumb1 -26.253704 0.000000 33.147579
RightShoulder 1.715455 -0.734548 3.144965
RightArm 16.338643 -31.606040 63.785268
RightForeArm 6.829575 0.000000 23.173949
RightHand 1.294614 -0.000000 -3.281854
RightHandThumb1 -24.326973 -0.000000 -32.862282
LeftUpLeg 12.530530 14.968262 7.196485
LeftLeg -8.754299 -0.000000 0.000000
LeftFoot -15.003237 26.588333 -8.454194
LeftToeBase 22.789791 -0.000000 -0.000000
RightUpLeg 9.275642 -4.563955 3.657219
RightLeg -4.564962 -0.000000 0.000000
RightFoot -3.867739 -27.616114 3.194755
RightToeBase 13.822158 -0.000000 -0.000000
701
root -5.383731 35.266194 -10.280243 -3.297762 -5.168232 -5.528663
Spine 0.869110 2.935997 10.390406
Head 2.539448 -0.770385 -7.378534
LeftShoulder -19.928694 14.698693 -17.868731
LeftArm 20.126809 -0.022303 -75.013639
LeftForeArm 5.091231 -0.000000 12.081557
LeftHand 2.023622 -0.000000 -5.698776
LeftHandThumb1 -26.253704 0.000000 33.147579
RightShoulder 1.828671 -0.592548 3.089723
RightArm 15.919050 -31.132569 64.123697
RightForeArm 7.341606 -0.000000 21.120587
RightHand 0.670084 -0.000000 -3.449695
RightHandThumb1 -24.326973 -0.000000 -32.862282
LeftUpLeg 12.561030 14.940704 7.225127
LeftLeg -8.776931 -0.000000 0.000000
LeftFoot -14.992855 26.581974 -8.424734
LeftToeBase 22.749385 -0.000000 -0.000000
RightUpLeg 9.310589 -4.615684 3.676328
RightLeg -4.567320 -0.000000 0.000000
RightFoot -3.869550 -27.627644 3.161254
RightToeBase 13.917078 -0.000000 -0.000000
702
root -5.381875 35.265893 -10.269577 -3.368279 -5.153356 -5.536670
Spine 0.907216 3.019739 10.392602
Head 2.584808 -1.046510 -7.272787
LeftShoulder -19.924489 14.683575 -17.844918
LeftArm 20.115179 -0.046337 -75.025979
LeftForeArm 5.132263 -0.000000 12.081189
LeftHand 2.039470 -0.000000 -5.759938
LeftHandThumb1 -26.253704 0.000000 33.147579
RightShoulder 1.914759 -0.478056 2.994063
RightArm 15.462625 -30.507201 64.549841
RightForeArm 7.400207 -0.000000 19.228196
RightHand 0.237940 -0.000000 -3.191798
RightHandThumb1 -24.326973 -0.000000 -32.862282
LeftUpLeg 12.658257 14.897821 7.249195
LeftLeg -8.795359 -0.000000 0.000000
LeftFoot -14.995247 26.587465 -8.423970
LeftToeBase 22.768793 -0.000000 -0.000000
RightUpLeg 9.416229 -4.626838 3.669322
RightLeg -4.597334 -0.000000 0.000000
RightFoot -3.883694 -27.624514 3.218772
RightToeBase 13.898226 -0.000000 -0.000000
703
root -5.380047 35.265803 -10.261122 -3.419385 -5.120620 -5.543117
Spine 0.921279 3.105946 10.394508
Head 2.630939 -1.336213 -7.178763
LeftShoulder -19.897110 14.708875 -17.820989
LeftArm 20.121809 -0.088194 -75.044792
LeftForeArm 5.144939 -0.000000 12.093883
LeftHand 2.042213 -0.000000 -5.777834
LeftHandThumb1 -26.253704 0.000000 33.147579
RightShoulder 2.028318 -0.406085 2.877332
RightArm 14.967930 -29.914103 64.928446
RightForeArm 7.144557 -0.000000 17.637714
RightHand -0.179180 -0.000000 -2.935443
RightHandThumb1 -24.326973 -0.000000 -32.862282
LeftUpLeg 12.720710 14.879337 7.267278
LeftLeg -8.803521 -0.000000 0.000000
LeftFoot -15.007133 26.570542 -8.443611
LeftToeBase 22.756027 -0.000000 -0.000000
RightUpLeg 9.493372 -4.677233 3.661813
RightLeg -4.616573 -0.000000 0.000000
RightFoot -3.874718 -27.605987 3.234815
RightToeBase 13.872852 -0.000000 -0.000000
704
root -5.380396 35.265938 -10.250444 -3.489964 -5.073990 -5.557326
Spine 0.958991 3.188877 10.409027
Head 2.663482 -1.664101 -7.105159
LeftShoulder -19.867335 14.722626 -17.800819
LeftArm 20.129380 -0.140590 -75.064821
LeftForeArm 5.200723 -0.000000 12.100360
LeftHand 2.065688 0.000000 -5.786331
LeftHandThumb1 -26.253704 0.000000 33.147579
RightShoulder 2.144245 -0.401446 2.746298
RightArm 14.470445 -29.306008 65.285714
RightForeArm 6.740361 0.000000 16.335544
RightHand -0.566683 -0.000000 -2.925280
RightHandThumb1 -24.326973 -0.000000 -32.862282
LeftUpLeg 12.818423 14.853021 7.303726
LeftLeg -8.835224 -0.000000 0.000000
LeftFoot -14.993228 26.534194 -8.431539
LeftToeBase 22.779293 -0.000000 -0.000000
RightUpLeg 9.613741 -4.692059 3.671508
RightLeg -4.675805 -0.000000 0.000000
RightFoot -3.869055 -27.644799 3.290411
RightToeBase 13.868040 -0.000000 -0.000000
705
root -5.379952 35.265707 -10.243316 -3.529738 -5.039807 -5.560674
Spine 0.982663 3.298420 10.404874
Head 2.655726 -2.005794 -7.015017
LeftShoulder -19.843582 14.711304 -17.759386
LeftArm 20.127849 -0.139596 -75.075650
LeftForeArm 5.219351 -0.000000 12.103356
LeftHand 2.096404 0.000000 -5.773159
LeftHandThumb1 -26.253704 0.000000 33.147579
RightShoulder 2.268133 -0.352501 2.626383
RightArm 13.791083 -28.564189 65.709659
RightForeArm 5.869441 -0.000000 15.380917
RightHand -0.976303 -0.000000 -2.291470
RightHandThumb1 -24.326973 -0.000000 -32.862282
LeftUpLeg 12.864595 14.833176 7.318891
LeftLeg -8.838010 -0.000000 0.000000
LeftFoot -14.990638 26.509380 -8.423932
LeftToeBase 22.775595 -0.000000 -0.000000
RightUpLeg 9.677641 -4.693506 3.672496
RightLeg -4.696343 -0.000000 0.000000
RightFoot -3.861365 -27.689982 3.310020
RightToeBase 13.833059 -0.000000 -0.000000
706
root -5.378488 35.266066 -10.233247 -3.583411 -4.985355 -5.563209
Spine 1.018066 3.370095 10.405849
Head 2.635537 -2.318027 -6.936554
LeftShoulder -19.838914 14.736143 -17.745044
LeftArm 20.167632 -0.157666 -75.082599
LeftForeArm 5.286775 -0.000000 12.109514
LeftHand 2.108377 -0.000000 -5.689112
LeftHandThumb1 -26.253704 0.000000 33.147579
RightShoulder 2.409011 -0.379383 2.524749
RightArm 13.108937 -27.789747 66.066065
RightForeArm 4.980928 -0.000000 14.734272
RightHand -1.261291 -0.000000 -1.856979
RightHandThumb1 -24.326973 -0.000000 -32.862282
LeftUpLeg 12.926511 14.784528 7.332736
LeftLeg -8.844108 -0.000000 0.000000
LeftFoot -14.985678 26.487852 -8.421796
LeftToeBase 22.759885 -0.000000 -0.000000
RightUpLeg 9.756790 -4.766216 3.663177
RightLeg -4.708505 -0.000000 0.000000
RightFoot -3.878474 -27.693686 3.328916
RightToeBase 13.818774 -0.000000 -0.000000
